<svg width="24" height="100%" viewBox="0 0 24 1145" preserveAspectRatio="none" fill="none" xmlns="http://www.w3.org/2000/svg">
<g clip-path="url(#clip0_291_4789)">
<g clip-path="url(#clip1_291_4789)">
<path d="M21.58 31.884C21.58 31.3667 21.4493 30.9453 21.188 30.62C20.9213 30.3 20.564 30.124 20.116 30.092V31.02C20.3187 31.0413 20.4787 31.1267 20.596 31.276C20.708 31.4253 20.764 31.6307 20.764 31.892C20.764 32.1853 20.6867 32.4067 20.532 32.556C20.3773 32.7053 20.1613 32.78 19.884 32.78H19.316C19.0333 32.78 18.8173 32.7053 18.668 32.556C18.5133 32.4067 18.436 32.188 18.436 31.9C18.436 31.7187 18.476 31.5613 18.556 31.428C18.636 31.2947 18.7427 31.196 18.876 31.132V30.22L15.66 30.26V33.5H16.5V31.148L18.26 31.124V31.356L18.468 31.124C18.2173 31.124 18.02 31.22 17.876 31.412C17.732 31.6093 17.66 31.8733 17.66 32.204C17.66 32.6787 17.8067 33.0467 18.1 33.308C18.388 33.5747 18.7933 33.708 19.316 33.708H19.884C20.4067 33.708 20.82 33.548 21.124 33.228C21.428 32.908 21.58 32.46 21.58 31.884ZM21.58 36.2969C21.58 35.9235 21.508 35.5982 21.364 35.3209C21.22 35.0489 21.0173 34.8382 20.756 34.6889C20.4947 34.5395 20.1907 34.4649 19.844 34.4649H17.316C16.964 34.4649 16.66 34.5395 16.404 34.6889C16.1427 34.8382 15.94 35.0489 15.796 35.3209C15.652 35.5982 15.58 35.9235 15.58 36.2969C15.58 36.6755 15.652 37.0009 15.796 37.2729C15.94 37.5449 16.1427 37.7555 16.404 37.9049C16.66 38.0542 16.964 38.1289 17.316 38.1289H19.844C20.1907 38.1289 20.4947 38.0542 20.756 37.9049C21.0173 37.7555 21.22 37.5422 21.364 37.2649C21.508 36.9929 21.58 36.6702 21.58 36.2969ZM20.78 36.2969C20.78 36.5849 20.6947 36.8142 20.524 36.9849C20.348 37.1555 20.1213 37.2409 19.844 37.2409H17.316C17.0387 37.2409 16.8147 37.1555 16.644 36.9849C16.468 36.8142 16.38 36.5849 16.38 36.2969C16.38 36.0089 16.468 35.7795 16.644 35.6089C16.8147 35.4382 17.0387 35.3529 17.316 35.3529H19.844C20.1213 35.3529 20.348 35.4382 20.524 35.6089C20.6947 35.7795 20.78 36.0089 20.78 36.2969ZM19.084 36.2969C19.084 36.1422 19.036 36.0169 18.94 35.9209C18.844 35.8302 18.716 35.7849 18.556 35.7849C18.4013 35.7849 18.2787 35.8302 18.188 35.9209C18.092 36.0169 18.044 36.1422 18.044 36.2969C18.044 36.4515 18.092 36.5742 18.188 36.6649C18.2787 36.7609 18.4013 36.8089 18.556 36.8089C18.716 36.8089 18.844 36.7609 18.94 36.6649C19.036 36.5742 19.084 36.4515 19.084 36.2969Z" fill="#C4C4C4" fill-opacity="0.12"/>
<rect width="7" height="1" transform="matrix(-1 0 0 1 12 33.5)" fill="#C4C4C4" fill-opacity="0.12"/>
</g>
<g clip-path="url(#clip2_291_4789)">
<path d="M21.5 150.524H20.676V152.052H16.476L17.628 150.516H16.636L15.66 151.852V152.988H20.676V154.228H21.5V150.524ZM21.58 156.633C21.58 156.259 21.508 155.934 21.364 155.657C21.22 155.385 21.0173 155.174 20.756 155.025C20.4947 154.875 20.1907 154.801 19.844 154.801H17.316C16.964 154.801 16.66 154.875 16.404 155.025C16.1427 155.174 15.94 155.385 15.796 155.657C15.652 155.934 15.58 156.259 15.58 156.633C15.58 157.011 15.652 157.337 15.796 157.609C15.94 157.881 16.1427 158.091 16.404 158.241C16.66 158.39 16.964 158.465 17.316 158.465H19.844C20.1907 158.465 20.4947 158.39 20.756 158.241C21.0173 158.091 21.22 157.878 21.364 157.601C21.508 157.329 21.58 157.006 21.58 156.633ZM20.78 156.633C20.78 156.921 20.6947 157.15 20.524 157.321C20.348 157.491 20.1213 157.577 19.844 157.577H17.316C17.0387 157.577 16.8147 157.491 16.644 157.321C16.468 157.15 16.38 156.921 16.38 156.633C16.38 156.345 16.468 156.115 16.644 155.945C16.8147 155.774 17.0387 155.689 17.316 155.689H19.844C20.1213 155.689 20.348 155.774 20.524 155.945C20.6947 156.115 20.78 156.345 20.78 156.633ZM19.084 156.633C19.084 156.478 19.036 156.353 18.94 156.257C18.844 156.166 18.716 156.121 18.556 156.121C18.4013 156.121 18.2787 156.166 18.188 156.257C18.092 156.353 18.044 156.478 18.044 156.633C18.044 156.787 18.092 156.91 18.188 157.001C18.2787 157.097 18.4013 157.145 18.556 157.145C18.716 157.145 18.844 157.097 18.94 157.001C19.036 156.91 19.084 156.787 19.084 156.633ZM21.58 161.03C21.58 160.656 21.508 160.331 21.364 160.054C21.22 159.782 21.0173 159.571 20.756 159.422C20.4947 159.272 20.1907 159.198 19.844 159.198H17.316C16.964 159.198 16.66 159.272 16.404 159.422C16.1427 159.571 15.94 159.782 15.796 160.054C15.652 160.331 15.58 160.656 15.58 161.03C15.58 161.408 15.652 161.734 15.796 162.006C15.94 162.278 16.1427 162.488 16.404 162.638C16.66 162.787 16.964 162.862 17.316 162.862H19.844C20.1907 162.862 20.4947 162.787 20.756 162.638C21.0173 162.488 21.22 162.275 21.364 161.998C21.508 161.726 21.58 161.403 21.58 161.03ZM20.78 161.03C20.78 161.318 20.6947 161.547 20.524 161.718C20.348 161.888 20.1213 161.974 19.844 161.974H17.316C17.0387 161.974 16.8147 161.888 16.644 161.718C16.468 161.547 16.38 161.318 16.38 161.03C16.38 160.742 16.468 160.512 16.644 160.342C16.8147 160.171 17.0387 160.086 17.316 160.086H19.844C20.1213 160.086 20.348 160.171 20.524 160.342C20.6947 160.512 20.78 160.742 20.78 161.03ZM19.084 161.03C19.084 160.875 19.036 160.75 18.94 160.654C18.844 160.563 18.716 160.518 18.556 160.518C18.4013 160.518 18.2787 160.563 18.188 160.654C18.092 160.75 18.044 160.875 18.044 161.03C18.044 161.184 18.092 161.307 18.188 161.398C18.2787 161.494 18.4013 161.542 18.556 161.542C18.716 161.542 18.844 161.494 18.94 161.398C19.036 161.307 19.084 161.184 19.084 161.03Z" fill="#C4C4C4" fill-opacity="0.12"/>
<rect width="7" height="1" transform="matrix(-1 0 0 1 12 155.836)" fill="#C4C4C4" fill-opacity="0.12"/>
</g>
<g clip-path="url(#clip3_291_4789)">
<path d="M21.5 272.852H20.676V274.38H16.476L17.628 272.844H16.636L15.66 274.18V275.316H20.676V276.556H21.5V272.852ZM21.58 278.945C21.58 278.428 21.4493 278.006 21.188 277.681C20.9213 277.361 20.564 277.185 20.116 277.153V278.081C20.3187 278.102 20.4787 278.188 20.596 278.337C20.708 278.486 20.764 278.692 20.764 278.953C20.764 279.246 20.6867 279.468 20.532 279.617C20.3773 279.766 20.1613 279.841 19.884 279.841H19.316C19.0333 279.841 18.8173 279.766 18.668 279.617C18.5133 279.468 18.436 279.249 18.436 278.961C18.436 278.78 18.476 278.622 18.556 278.489C18.636 278.356 18.7427 278.257 18.876 278.193V277.281L15.66 277.321V280.561H16.5V278.209L18.26 278.185V278.417L18.468 278.185C18.2173 278.185 18.02 278.281 17.876 278.473C17.732 278.67 17.66 278.934 17.66 279.265C17.66 279.74 17.8067 280.108 18.1 280.369C18.388 280.636 18.7933 280.769 19.316 280.769H19.884C20.4067 280.769 20.82 280.609 21.124 280.289C21.428 279.969 21.58 279.521 21.58 278.945ZM21.58 283.358C21.58 282.984 21.508 282.659 21.364 282.382C21.22 282.11 21.0173 281.899 20.756 281.75C20.4947 281.6 20.1907 281.526 19.844 281.526H17.316C16.964 281.526 16.66 281.6 16.404 281.75C16.1427 281.899 15.94 282.11 15.796 282.382C15.652 282.659 15.58 282.984 15.58 283.358C15.58 283.736 15.652 284.062 15.796 284.334C15.94 284.606 16.1427 284.816 16.404 284.966C16.66 285.115 16.964 285.19 17.316 285.19H19.844C20.1907 285.19 20.4947 285.115 20.756 284.966C21.0173 284.816 21.22 284.603 21.364 284.326C21.508 284.054 21.58 283.731 21.58 283.358ZM20.78 283.358C20.78 283.646 20.6947 283.875 20.524 284.046C20.348 284.216 20.1213 284.302 19.844 284.302H17.316C17.0387 284.302 16.8147 284.216 16.644 284.046C16.468 283.875 16.38 283.646 16.38 283.358C16.38 283.07 16.468 282.84 16.644 282.67C16.8147 282.499 17.0387 282.414 17.316 282.414H19.844C20.1213 282.414 20.348 282.499 20.524 282.67C20.6947 282.84 20.78 283.07 20.78 283.358ZM19.084 283.358C19.084 283.203 19.036 283.078 18.94 282.982C18.844 282.891 18.716 282.846 18.556 282.846C18.4013 282.846 18.2787 282.891 18.188 282.982C18.092 283.078 18.044 283.203 18.044 283.358C18.044 283.512 18.092 283.635 18.188 283.726C18.2787 283.822 18.4013 283.87 18.556 283.87C18.716 283.87 18.844 283.822 18.94 283.726C19.036 283.635 19.084 283.512 19.084 283.358Z" fill="#C4C4C4" fill-opacity="0.12"/>
<rect width="7" height="1" transform="matrix(-1 0 0 1 12 278.164)" fill="#C4C4C4" fill-opacity="0.12"/>
</g>
<g clip-path="url(#clip4_291_4789)">
<path d="M21.5 395.156H20.588L18.74 396.972C18.4627 397.239 18.2147 397.433 17.996 397.556C17.772 397.684 17.548 397.748 17.324 397.748C17.0413 397.748 16.82 397.671 16.66 397.516C16.4947 397.361 16.412 397.151 16.412 396.884C16.412 396.585 16.4973 396.351 16.668 396.18C16.8387 396.015 17.0733 395.932 17.372 395.932V394.996C17.004 395.001 16.6867 395.081 16.42 395.236C16.1533 395.396 15.948 395.617 15.804 395.9C15.6547 396.183 15.58 396.513 15.58 396.892C15.58 397.255 15.6493 397.569 15.788 397.836C15.9267 398.108 16.1213 398.316 16.372 398.46C16.6227 398.609 16.9187 398.684 17.26 398.684C17.612 398.684 17.956 398.593 18.292 398.412C18.628 398.231 18.996 397.937 19.396 397.532L20.66 396.26V398.764H21.5V395.156ZM21.58 401.297C21.58 400.924 21.508 400.598 21.364 400.321C21.22 400.049 21.0173 399.838 20.756 399.689C20.4947 399.54 20.1907 399.465 19.844 399.465H17.316C16.964 399.465 16.66 399.54 16.404 399.689C16.1427 399.838 15.94 400.049 15.796 400.321C15.652 400.598 15.58 400.924 15.58 401.297C15.58 401.676 15.652 402.001 15.796 402.273C15.94 402.545 16.1427 402.756 16.404 402.905C16.66 403.054 16.964 403.129 17.316 403.129H19.844C20.1907 403.129 20.4947 403.054 20.756 402.905C21.0173 402.756 21.22 402.542 21.364 402.265C21.508 401.993 21.58 401.67 21.58 401.297ZM20.78 401.297C20.78 401.585 20.6947 401.814 20.524 401.985C20.348 402.156 20.1213 402.241 19.844 402.241H17.316C17.0387 402.241 16.8147 402.156 16.644 401.985C16.468 401.814 16.38 401.585 16.38 401.297C16.38 401.009 16.468 400.78 16.644 400.609C16.8147 400.438 17.0387 400.353 17.316 400.353H19.844C20.1213 400.353 20.348 400.438 20.524 400.609C20.6947 400.78 20.78 401.009 20.78 401.297ZM19.084 401.297C19.084 401.142 19.036 401.017 18.94 400.921C18.844 400.83 18.716 400.785 18.556 400.785C18.4013 400.785 18.2787 400.83 18.188 400.921C18.092 401.017 18.044 401.142 18.044 401.297C18.044 401.452 18.092 401.574 18.188 401.665C18.2787 401.761 18.4013 401.809 18.556 401.809C18.716 401.809 18.844 401.761 18.94 401.665C19.036 401.574 19.084 401.452 19.084 401.297ZM21.58 405.694C21.58 405.32 21.508 404.995 21.364 404.718C21.22 404.446 21.0173 404.235 20.756 404.086C20.4947 403.936 20.1907 403.862 19.844 403.862H17.316C16.964 403.862 16.66 403.936 16.404 404.086C16.1427 404.235 15.94 404.446 15.796 404.718C15.652 404.995 15.58 405.32 15.58 405.694C15.58 406.072 15.652 406.398 15.796 406.67C15.94 406.942 16.1427 407.152 16.404 407.302C16.66 407.451 16.964 407.526 17.316 407.526H19.844C20.1907 407.526 20.4947 407.451 20.756 407.302C21.0173 407.152 21.22 406.939 21.364 406.662C21.508 406.39 21.58 406.067 21.58 405.694ZM20.78 405.694C20.78 405.982 20.6947 406.211 20.524 406.382C20.348 406.552 20.1213 406.638 19.844 406.638H17.316C17.0387 406.638 16.8147 406.552 16.644 406.382C16.468 406.211 16.38 405.982 16.38 405.694C16.38 405.406 16.468 405.176 16.644 405.006C16.8147 404.835 17.0387 404.75 17.316 404.75H19.844C20.1213 404.75 20.348 404.835 20.524 405.006C20.6947 405.176 20.78 405.406 20.78 405.694ZM19.084 405.694C19.084 405.539 19.036 405.414 18.94 405.318C18.844 405.227 18.716 405.182 18.556 405.182C18.4013 405.182 18.2787 405.227 18.188 405.318C18.092 405.414 18.044 405.539 18.044 405.694C18.044 405.848 18.092 405.971 18.188 406.062C18.2787 406.158 18.4013 406.206 18.556 406.206C18.716 406.206 18.844 406.158 18.94 406.062C19.036 405.971 19.084 405.848 19.084 405.694Z" fill="#C4C4C4" fill-opacity="0.12"/>
<rect width="7" height="1" transform="matrix(-1 0 0 1 12 400.5)" fill="#C4C4C4" fill-opacity="0.12"/>
</g>
<g clip-path="url(#clip5_291_4789)">
<path d="M21.5 517.492H20.588L18.74 519.308C18.4627 519.575 18.2147 519.769 17.996 519.892C17.772 520.02 17.548 520.084 17.324 520.084C17.0413 520.084 16.82 520.007 16.66 519.852C16.4947 519.697 16.412 519.487 16.412 519.22C16.412 518.921 16.4973 518.687 16.668 518.516C16.8387 518.351 17.0733 518.268 17.372 518.268V517.332C17.004 517.337 16.6867 517.417 16.42 517.572C16.1533 517.732 15.948 517.953 15.804 518.236C15.6547 518.519 15.58 518.849 15.58 519.228C15.58 519.591 15.6493 519.905 15.788 520.172C15.9267 520.444 16.1213 520.652 16.372 520.796C16.6227 520.945 16.9187 521.02 17.26 521.02C17.612 521.02 17.956 520.929 18.292 520.748C18.628 520.567 18.996 520.273 19.396 519.868L20.66 518.596V521.1H21.5V517.492ZM21.58 523.617C21.58 523.099 21.4493 522.678 21.188 522.353C20.9213 522.033 20.564 521.857 20.116 521.825V522.753C20.3187 522.774 20.4787 522.859 20.596 523.009C20.708 523.158 20.764 523.363 20.764 523.625C20.764 523.918 20.6867 524.139 20.532 524.289C20.3773 524.438 20.1613 524.513 19.884 524.513H19.316C19.0333 524.513 18.8173 524.438 18.668 524.289C18.5133 524.139 18.436 523.921 18.436 523.633C18.436 523.451 18.476 523.294 18.556 523.161C18.636 523.027 18.7427 522.929 18.876 522.865V521.953L15.66 521.993V525.233H16.5V522.881L18.26 522.857V523.089L18.468 522.857C18.2173 522.857 18.02 522.953 17.876 523.145C17.732 523.342 17.66 523.606 17.66 523.937C17.66 524.411 17.8067 524.779 18.1 525.041C18.388 525.307 18.7933 525.441 19.316 525.441H19.884C20.4067 525.441 20.82 525.281 21.124 524.961C21.428 524.641 21.58 524.193 21.58 523.617ZM21.58 528.03C21.58 527.656 21.508 527.331 21.364 527.054C21.22 526.782 21.0173 526.571 20.756 526.422C20.4947 526.272 20.1907 526.198 19.844 526.198H17.316C16.964 526.198 16.66 526.272 16.404 526.422C16.1427 526.571 15.94 526.782 15.796 527.054C15.652 527.331 15.58 527.656 15.58 528.03C15.58 528.408 15.652 528.734 15.796 529.006C15.94 529.278 16.1427 529.488 16.404 529.638C16.66 529.787 16.964 529.862 17.316 529.862H19.844C20.1907 529.862 20.4947 529.787 20.756 529.638C21.0173 529.488 21.22 529.275 21.364 528.998C21.508 528.726 21.58 528.403 21.58 528.03ZM20.78 528.03C20.78 528.318 20.6947 528.547 20.524 528.718C20.348 528.888 20.1213 528.974 19.844 528.974H17.316C17.0387 528.974 16.8147 528.888 16.644 528.718C16.468 528.547 16.38 528.318 16.38 528.03C16.38 527.742 16.468 527.512 16.644 527.342C16.8147 527.171 17.0387 527.086 17.316 527.086H19.844C20.1213 527.086 20.348 527.171 20.524 527.342C20.6947 527.512 20.78 527.742 20.78 528.03ZM19.084 528.03C19.084 527.875 19.036 527.75 18.94 527.654C18.844 527.563 18.716 527.518 18.556 527.518C18.4013 527.518 18.2787 527.563 18.188 527.654C18.092 527.75 18.044 527.875 18.044 528.03C18.044 528.184 18.092 528.307 18.188 528.398C18.2787 528.494 18.4013 528.542 18.556 528.542C18.716 528.542 18.844 528.494 18.94 528.398C19.036 528.307 19.084 528.184 19.084 528.03Z" fill="#C4C4C4" fill-opacity="0.12"/>
<rect width="7" height="1" transform="matrix(-1 0 0 1 12 522.836)" fill="#C4C4C4" fill-opacity="0.12"/>
</g>
<g clip-path="url(#clip6_291_4789)">
<path d="M21.58 641.5C21.58 641.127 21.5107 640.801 21.372 640.524C21.2333 640.252 21.0387 640.039 20.788 639.884C20.532 639.735 20.236 639.66 19.9 639.66V640.596C20.1773 640.596 20.3933 640.676 20.548 640.836C20.7027 640.996 20.78 641.22 20.78 641.508C20.78 641.801 20.7 642.025 20.54 642.18C20.38 642.34 20.1667 642.42 19.9 642.42H19.452C19.1747 642.42 18.9587 642.34 18.804 642.18C18.6493 642.02 18.572 641.796 18.572 641.508V640.868H17.716L16.468 642.196V639.916H15.66V643.14H16.516L18.028 641.516H17.764C17.764 642.081 17.916 642.527 18.22 642.852C18.524 643.183 18.9347 643.348 19.452 643.348H19.9C20.236 643.348 20.532 643.273 20.788 643.124C21.0387 642.975 21.2333 642.759 21.372 642.476C21.5107 642.199 21.58 641.873 21.58 641.5ZM21.58 645.961C21.58 645.588 21.508 645.262 21.364 644.985C21.22 644.713 21.0173 644.502 20.756 644.353C20.4947 644.204 20.1907 644.129 19.844 644.129H17.316C16.964 644.129 16.66 644.204 16.404 644.353C16.1427 644.502 15.94 644.713 15.796 644.985C15.652 645.262 15.58 645.588 15.58 645.961C15.58 646.34 15.652 646.665 15.796 646.937C15.94 647.209 16.1427 647.42 16.404 647.569C16.66 647.718 16.964 647.793 17.316 647.793H19.844C20.1907 647.793 20.4947 647.718 20.756 647.569C21.0173 647.42 21.22 647.206 21.364 646.929C21.508 646.657 21.58 646.334 21.58 645.961ZM20.78 645.961C20.78 646.249 20.6947 646.478 20.524 646.649C20.348 646.82 20.1213 646.905 19.844 646.905H17.316C17.0387 646.905 16.8147 646.82 16.644 646.649C16.468 646.478 16.38 646.249 16.38 645.961C16.38 645.673 16.468 645.444 16.644 645.273C16.8147 645.102 17.0387 645.017 17.316 645.017H19.844C20.1213 645.017 20.348 645.102 20.524 645.273C20.6947 645.444 20.78 645.673 20.78 645.961ZM19.084 645.961C19.084 645.806 19.036 645.681 18.94 645.585C18.844 645.494 18.716 645.449 18.556 645.449C18.4013 645.449 18.2787 645.494 18.188 645.585C18.092 645.681 18.044 645.806 18.044 645.961C18.044 646.116 18.092 646.238 18.188 646.329C18.2787 646.425 18.4013 646.473 18.556 646.473C18.716 646.473 18.844 646.425 18.94 646.329C19.036 646.238 19.084 646.116 19.084 645.961ZM21.58 650.358C21.58 649.984 21.508 649.659 21.364 649.382C21.22 649.11 21.0173 648.899 20.756 648.75C20.4947 648.6 20.1907 648.526 19.844 648.526H17.316C16.964 648.526 16.66 648.6 16.404 648.75C16.1427 648.899 15.94 649.11 15.796 649.382C15.652 649.659 15.58 649.984 15.58 650.358C15.58 650.736 15.652 651.062 15.796 651.334C15.94 651.606 16.1427 651.816 16.404 651.966C16.66 652.115 16.964 652.19 17.316 652.19H19.844C20.1907 652.19 20.4947 652.115 20.756 651.966C21.0173 651.816 21.22 651.603 21.364 651.326C21.508 651.054 21.58 650.731 21.58 650.358ZM20.78 650.358C20.78 650.646 20.6947 650.875 20.524 651.046C20.348 651.216 20.1213 651.302 19.844 651.302H17.316C17.0387 651.302 16.8147 651.216 16.644 651.046C16.468 650.875 16.38 650.646 16.38 650.358C16.38 650.07 16.468 649.84 16.644 649.67C16.8147 649.499 17.0387 649.414 17.316 649.414H19.844C20.1213 649.414 20.348 649.499 20.524 649.67C20.6947 649.84 20.78 650.07 20.78 650.358ZM19.084 650.358C19.084 650.203 19.036 650.078 18.94 649.982C18.844 649.891 18.716 649.846 18.556 649.846C18.4013 649.846 18.2787 649.891 18.188 649.982C18.092 650.078 18.044 650.203 18.044 650.358C18.044 650.512 18.092 650.635 18.188 650.726C18.2787 650.822 18.4013 650.87 18.556 650.87C18.716 650.87 18.844 650.822 18.94 650.726C19.036 650.635 19.084 650.512 19.084 650.358Z" fill="#C4C4C4" fill-opacity="0.12"/>
<rect width="7" height="1" transform="matrix(-1 0 0 1 12 645.164)" fill="#C4C4C4" fill-opacity="0.12"/>
</g>
<g clip-path="url(#clip7_291_4789)">
<path d="M21.58 763.836C21.58 763.463 21.5107 763.137 21.372 762.86C21.2333 762.588 21.0387 762.375 20.788 762.22C20.532 762.071 20.236 761.996 19.9 761.996V762.932C20.1773 762.932 20.3933 763.012 20.548 763.172C20.7027 763.332 20.78 763.556 20.78 763.844C20.78 764.137 20.7 764.361 20.54 764.516C20.38 764.676 20.1667 764.756 19.9 764.756H19.452C19.1747 764.756 18.9587 764.676 18.804 764.516C18.6493 764.356 18.572 764.132 18.572 763.844V763.204H17.716L16.468 764.532V762.252H15.66V765.476H16.516L18.028 763.852H17.764C17.764 764.417 17.916 764.863 18.22 765.188C18.524 765.519 18.9347 765.684 19.452 765.684H19.9C20.236 765.684 20.532 765.609 20.788 765.46C21.0387 765.311 21.2333 765.095 21.372 764.812C21.5107 764.535 21.58 764.209 21.58 763.836ZM21.58 768.281C21.58 767.764 21.4493 767.342 21.188 767.017C20.9213 766.697 20.564 766.521 20.116 766.489V767.417C20.3187 767.438 20.4787 767.524 20.596 767.673C20.708 767.822 20.764 768.028 20.764 768.289C20.764 768.582 20.6867 768.804 20.532 768.953C20.3773 769.102 20.1613 769.177 19.884 769.177H19.316C19.0333 769.177 18.8173 769.102 18.668 768.953C18.5133 768.804 18.436 768.585 18.436 768.297C18.436 768.116 18.476 767.958 18.556 767.825C18.636 767.692 18.7427 767.593 18.876 767.529V766.617L15.66 766.657V769.897H16.5V767.545L18.26 767.521V767.753L18.468 767.521C18.2173 767.521 18.02 767.617 17.876 767.809C17.732 768.006 17.66 768.27 17.66 768.601C17.66 769.076 17.8067 769.444 18.1 769.705C18.388 769.972 18.7933 770.105 19.316 770.105H19.884C20.4067 770.105 20.82 769.945 21.124 769.625C21.428 769.305 21.58 768.857 21.58 768.281ZM21.58 772.694C21.58 772.32 21.508 771.995 21.364 771.718C21.22 771.446 21.0173 771.235 20.756 771.086C20.4947 770.936 20.1907 770.862 19.844 770.862H17.316C16.964 770.862 16.66 770.936 16.404 771.086C16.1427 771.235 15.94 771.446 15.796 771.718C15.652 771.995 15.58 772.32 15.58 772.694C15.58 773.072 15.652 773.398 15.796 773.67C15.94 773.942 16.1427 774.152 16.404 774.302C16.66 774.451 16.964 774.526 17.316 774.526H19.844C20.1907 774.526 20.4947 774.451 20.756 774.302C21.0173 774.152 21.22 773.939 21.364 773.662C21.508 773.39 21.58 773.067 21.58 772.694ZM20.78 772.694C20.78 772.982 20.6947 773.211 20.524 773.382C20.348 773.552 20.1213 773.638 19.844 773.638H17.316C17.0387 773.638 16.8147 773.552 16.644 773.382C16.468 773.211 16.38 772.982 16.38 772.694C16.38 772.406 16.468 772.176 16.644 772.006C16.8147 771.835 17.0387 771.75 17.316 771.75H19.844C20.1213 771.75 20.348 771.835 20.524 772.006C20.6947 772.176 20.78 772.406 20.78 772.694ZM19.084 772.694C19.084 772.539 19.036 772.414 18.94 772.318C18.844 772.227 18.716 772.182 18.556 772.182C18.4013 772.182 18.2787 772.227 18.188 772.318C18.092 772.414 18.044 772.539 18.044 772.694C18.044 772.848 18.092 772.971 18.188 773.062C18.2787 773.158 18.4013 773.206 18.556 773.206C18.716 773.206 18.844 773.158 18.94 773.062C19.036 772.971 19.084 772.848 19.084 772.694Z" fill="#C4C4C4" fill-opacity="0.12"/>
<rect width="7" height="1" transform="matrix(-1 0 0 1 12 767.5)" fill="#C4C4C4" fill-opacity="0.12"/>
</g>
<g clip-path="url(#clip8_291_4789)">
<path d="M21.5 886.996H20.316V884.388H18.94L15.66 886.644V887.684L19.18 885.284H19.484V886.996H18.14V887.924H21.5V886.996ZM21.58 890.633C21.58 890.259 21.508 889.934 21.364 889.657C21.22 889.385 21.0173 889.174 20.756 889.025C20.4947 888.875 20.1907 888.801 19.844 888.801H17.316C16.964 888.801 16.66 888.875 16.404 889.025C16.1427 889.174 15.94 889.385 15.796 889.657C15.652 889.934 15.58 890.259 15.58 890.633C15.58 891.011 15.652 891.337 15.796 891.609C15.94 891.881 16.1427 892.091 16.404 892.241C16.66 892.39 16.964 892.465 17.316 892.465H19.844C20.1907 892.465 20.4947 892.39 20.756 892.241C21.0173 892.091 21.22 891.878 21.364 891.601C21.508 891.329 21.58 891.006 21.58 890.633ZM20.78 890.633C20.78 890.921 20.6947 891.15 20.524 891.321C20.348 891.491 20.1213 891.577 19.844 891.577H17.316C17.0387 891.577 16.8147 891.491 16.644 891.321C16.468 891.15 16.38 890.921 16.38 890.633C16.38 890.345 16.468 890.115 16.644 889.945C16.8147 889.774 17.0387 889.689 17.316 889.689H19.844C20.1213 889.689 20.348 889.774 20.524 889.945C20.6947 890.115 20.78 890.345 20.78 890.633ZM19.084 890.633C19.084 890.478 19.036 890.353 18.94 890.257C18.844 890.166 18.716 890.121 18.556 890.121C18.4013 890.121 18.2787 890.166 18.188 890.257C18.092 890.353 18.044 890.478 18.044 890.633C18.044 890.787 18.092 890.91 18.188 891.001C18.2787 891.097 18.4013 891.145 18.556 891.145C18.716 891.145 18.844 891.097 18.94 891.001C19.036 890.91 19.084 890.787 19.084 890.633ZM21.58 895.03C21.58 894.656 21.508 894.331 21.364 894.054C21.22 893.782 21.0173 893.571 20.756 893.422C20.4947 893.272 20.1907 893.198 19.844 893.198H17.316C16.964 893.198 16.66 893.272 16.404 893.422C16.1427 893.571 15.94 893.782 15.796 894.054C15.652 894.331 15.58 894.656 15.58 895.03C15.58 895.408 15.652 895.734 15.796 896.006C15.94 896.278 16.1427 896.488 16.404 896.638C16.66 896.787 16.964 896.862 17.316 896.862H19.844C20.1907 896.862 20.4947 896.787 20.756 896.638C21.0173 896.488 21.22 896.275 21.364 895.998C21.508 895.726 21.58 895.403 21.58 895.03ZM20.78 895.03C20.78 895.318 20.6947 895.547 20.524 895.718C20.348 895.888 20.1213 895.974 19.844 895.974H17.316C17.0387 895.974 16.8147 895.888 16.644 895.718C16.468 895.547 16.38 895.318 16.38 895.03C16.38 894.742 16.468 894.512 16.644 894.342C16.8147 894.171 17.0387 894.086 17.316 894.086H19.844C20.1213 894.086 20.348 894.171 20.524 894.342C20.6947 894.512 20.78 894.742 20.78 895.03ZM19.084 895.03C19.084 894.875 19.036 894.75 18.94 894.654C18.844 894.563 18.716 894.518 18.556 894.518C18.4013 894.518 18.2787 894.563 18.188 894.654C18.092 894.75 18.044 894.875 18.044 895.03C18.044 895.184 18.092 895.307 18.188 895.398C18.2787 895.494 18.4013 895.542 18.556 895.542C18.716 895.542 18.844 895.494 18.94 895.398C19.036 895.307 19.084 895.184 19.084 895.03Z" fill="#C4C4C4" fill-opacity="0.12"/>
<rect width="7" height="1" transform="matrix(-1 0 0 1 12 889.836)" fill="#C4C4C4" fill-opacity="0.12"/>
</g>
<g clip-path="url(#clip9_291_4789)">
<path d="M21.5 1009.32H20.316V1006.72H18.94L15.66 1008.97V1010.01L19.18 1007.61H19.484V1009.32H18.14V1010.25H21.5V1009.32ZM21.58 1012.94C21.58 1012.43 21.4493 1012.01 21.188 1011.68C20.9213 1011.36 20.564 1011.18 20.116 1011.15V1012.08C20.3187 1012.1 20.4787 1012.19 20.596 1012.34C20.708 1012.49 20.764 1012.69 20.764 1012.95C20.764 1013.25 20.6867 1013.47 20.532 1013.62C20.3773 1013.77 20.1613 1013.84 19.884 1013.84H19.316C19.0333 1013.84 18.8173 1013.77 18.668 1013.62C18.5133 1013.47 18.436 1013.25 18.436 1012.96C18.436 1012.78 18.476 1012.62 18.556 1012.49C18.636 1012.36 18.7427 1012.26 18.876 1012.19V1011.28L15.66 1011.32V1014.56H16.5V1012.21L18.26 1012.18V1012.42L18.468 1012.18C18.2173 1012.18 18.02 1012.28 17.876 1012.47C17.732 1012.67 17.66 1012.93 17.66 1013.26C17.66 1013.74 17.8067 1014.11 18.1 1014.37C18.388 1014.64 18.7933 1014.77 19.316 1014.77H19.884C20.4067 1014.77 20.82 1014.61 21.124 1014.29C21.428 1013.97 21.58 1013.52 21.58 1012.94ZM21.58 1017.36C21.58 1016.98 21.508 1016.66 21.364 1016.38C21.22 1016.11 21.0173 1015.9 20.756 1015.75C20.4947 1015.6 20.1907 1015.53 19.844 1015.53H17.316C16.964 1015.53 16.66 1015.6 16.404 1015.75C16.1427 1015.9 15.94 1016.11 15.796 1016.38C15.652 1016.66 15.58 1016.98 15.58 1017.36C15.58 1017.74 15.652 1018.06 15.796 1018.33C15.94 1018.61 16.1427 1018.82 16.404 1018.97C16.66 1019.12 16.964 1019.19 17.316 1019.19H19.844C20.1907 1019.19 20.4947 1019.12 20.756 1018.97C21.0173 1018.82 21.22 1018.6 21.364 1018.33C21.508 1018.05 21.58 1017.73 21.58 1017.36ZM20.78 1017.36C20.78 1017.65 20.6947 1017.88 20.524 1018.05C20.348 1018.22 20.1213 1018.3 19.844 1018.3H17.316C17.0387 1018.3 16.8147 1018.22 16.644 1018.05C16.468 1017.88 16.38 1017.65 16.38 1017.36C16.38 1017.07 16.468 1016.84 16.644 1016.67C16.8147 1016.5 17.0387 1016.41 17.316 1016.41H19.844C20.1213 1016.41 20.348 1016.5 20.524 1016.67C20.6947 1016.84 20.78 1017.07 20.78 1017.36ZM19.084 1017.36C19.084 1017.2 19.036 1017.08 18.94 1016.98C18.844 1016.89 18.716 1016.85 18.556 1016.85C18.4013 1016.85 18.2787 1016.89 18.188 1016.98C18.092 1017.08 18.044 1017.2 18.044 1017.36C18.044 1017.51 18.092 1017.64 18.188 1017.73C18.2787 1017.82 18.4013 1017.87 18.556 1017.87C18.716 1017.87 18.844 1017.82 18.94 1017.73C19.036 1017.64 19.084 1017.51 19.084 1017.36Z" fill="#C4C4C4" fill-opacity="0.12"/>
<rect width="7" height="1" transform="matrix(-1 0 0 1 12 1012.16)" fill="#C4C4C4" fill-opacity="0.12"/>
</g>
<g clip-path="url(#clip10_291_4789)">
<path d="M21.58 1130.88C21.58 1130.37 21.4493 1129.95 21.188 1129.62C20.9213 1129.3 20.564 1129.12 20.116 1129.09V1130.02C20.3187 1130.04 20.4787 1130.13 20.596 1130.28C20.708 1130.43 20.764 1130.63 20.764 1130.89C20.764 1131.19 20.6867 1131.41 20.532 1131.56C20.3773 1131.71 20.1613 1131.78 19.884 1131.78H19.316C19.0333 1131.78 18.8173 1131.71 18.668 1131.56C18.5133 1131.41 18.436 1131.19 18.436 1130.9C18.436 1130.72 18.476 1130.56 18.556 1130.43C18.636 1130.29 18.7427 1130.2 18.876 1130.13V1129.22L15.66 1129.26V1132.5H16.5V1130.15L18.26 1130.12V1130.36L18.468 1130.12C18.2173 1130.12 18.02 1130.22 17.876 1130.41C17.732 1130.61 17.66 1130.87 17.66 1131.2C17.66 1131.68 17.8067 1132.05 18.1 1132.31C18.388 1132.57 18.7933 1132.71 19.316 1132.71H19.884C20.4067 1132.71 20.82 1132.55 21.124 1132.23C21.428 1131.91 21.58 1131.46 21.58 1130.88ZM21.58 1135.3C21.58 1134.92 21.508 1134.6 21.364 1134.32C21.22 1134.05 21.0173 1133.84 20.756 1133.69C20.4947 1133.54 20.1907 1133.46 19.844 1133.46H17.316C16.964 1133.46 16.66 1133.54 16.404 1133.69C16.1427 1133.84 15.94 1134.05 15.796 1134.32C15.652 1134.6 15.58 1134.92 15.58 1135.3C15.58 1135.68 15.652 1136 15.796 1136.27C15.94 1136.54 16.1427 1136.76 16.404 1136.9C16.66 1137.05 16.964 1137.13 17.316 1137.13H19.844C20.1907 1137.13 20.4947 1137.05 20.756 1136.9C21.0173 1136.76 21.22 1136.54 21.364 1136.26C21.508 1135.99 21.58 1135.67 21.58 1135.3ZM20.78 1135.3C20.78 1135.58 20.6947 1135.81 20.524 1135.98C20.348 1136.16 20.1213 1136.24 19.844 1136.24H17.316C17.0387 1136.24 16.8147 1136.16 16.644 1135.98C16.468 1135.81 16.38 1135.58 16.38 1135.3C16.38 1135.01 16.468 1134.78 16.644 1134.61C16.8147 1134.44 17.0387 1134.35 17.316 1134.35H19.844C20.1213 1134.35 20.348 1134.44 20.524 1134.61C20.6947 1134.78 20.78 1135.01 20.78 1135.3ZM19.084 1135.3C19.084 1135.14 19.036 1135.02 18.94 1134.92C18.844 1134.83 18.716 1134.78 18.556 1134.78C18.4013 1134.78 18.2787 1134.83 18.188 1134.92C18.092 1135.02 18.044 1135.14 18.044 1135.3C18.044 1135.45 18.092 1135.57 18.188 1135.66C18.2787 1135.76 18.4013 1135.81 18.556 1135.81C18.716 1135.81 18.844 1135.76 18.94 1135.66C19.036 1135.57 19.084 1135.45 19.084 1135.3ZM21.58 1139.69C21.58 1139.32 21.508 1139 21.364 1138.72C21.22 1138.45 21.0173 1138.24 20.756 1138.09C20.4947 1137.94 20.1907 1137.86 19.844 1137.86H17.316C16.964 1137.86 16.66 1137.94 16.404 1138.09C16.1427 1138.24 15.94 1138.45 15.796 1138.72C15.652 1139 15.58 1139.32 15.58 1139.69C15.58 1140.07 15.652 1140.4 15.796 1140.67C15.94 1140.94 16.1427 1141.15 16.404 1141.3C16.66 1141.45 16.964 1141.53 17.316 1141.53H19.844C20.1907 1141.53 20.4947 1141.45 20.756 1141.3C21.0173 1141.15 21.22 1140.94 21.364 1140.66C21.508 1140.39 21.58 1140.07 21.58 1139.69ZM20.78 1139.69C20.78 1139.98 20.6947 1140.21 20.524 1140.38C20.348 1140.55 20.1213 1140.64 19.844 1140.64H17.316C17.0387 1140.64 16.8147 1140.55 16.644 1140.38C16.468 1140.21 16.38 1139.98 16.38 1139.69C16.38 1139.41 16.468 1139.18 16.644 1139.01C16.8147 1138.84 17.0387 1138.75 17.316 1138.75H19.844C20.1213 1138.75 20.348 1138.84 20.524 1139.01C20.6947 1139.18 20.78 1139.41 20.78 1139.69ZM19.084 1139.69C19.084 1139.54 19.036 1139.41 18.94 1139.32C18.844 1139.23 18.716 1139.18 18.556 1139.18C18.4013 1139.18 18.2787 1139.23 18.188 1139.32C18.092 1139.41 18.044 1139.54 18.044 1139.69C18.044 1139.85 18.092 1139.97 18.188 1140.06C18.2787 1140.16 18.4013 1140.21 18.556 1140.21C18.716 1140.21 18.844 1140.16 18.94 1140.06C19.036 1139.97 19.084 1139.85 19.084 1139.69Z" fill="#C4C4C4" fill-opacity="0.12"/>
<rect width="7" height="1" transform="matrix(-1 0 0 1 12 1134.5)" fill="#C4C4C4" fill-opacity="0.12"/>
</g>
<g clip-path="url(#clip11_291_4789)">
<rect width="1" height="1145" transform="matrix(-1 0 0 1 3 0)" fill="#DCDFE4" fill-opacity="0.12"/>
<rect width="1" height="1145" transform="matrix(-1 0 0 1 1 0)" fill="#DCDFE4" fill-opacity="0.12"/>
</g>
</g>
<defs>
<clipPath id="clip0_291_4789">
<rect width="24" height="1145" fill="white" transform="matrix(-1 0 0 1 24 0)"/>
</clipPath>
<clipPath id="clip1_291_4789">
<rect width="19" height="20" fill="white" transform="matrix(-1 0 0 1 24 24)"/>
</clipPath>
<clipPath id="clip2_291_4789">
<rect width="19" height="20" fill="white" transform="matrix(-1 0 0 1 24 146.336)"/>
</clipPath>
<clipPath id="clip3_291_4789">
<rect width="19" height="20" fill="white" transform="matrix(-1 0 0 1 24 268.664)"/>
</clipPath>
<clipPath id="clip4_291_4789">
<rect width="19" height="20" fill="white" transform="matrix(-1 0 0 1 24 391)"/>
</clipPath>
<clipPath id="clip5_291_4789">
<rect width="19" height="20" fill="white" transform="matrix(-1 0 0 1 24 513.336)"/>
</clipPath>
<clipPath id="clip6_291_4789">
<rect width="19" height="20" fill="white" transform="matrix(-1 0 0 1 24 635.664)"/>
</clipPath>
<clipPath id="clip7_291_4789">
<rect width="19" height="20" fill="white" transform="matrix(-1 0 0 1 24 758)"/>
</clipPath>
<clipPath id="clip8_291_4789">
<rect width="19" height="20" fill="white" transform="matrix(-1 0 0 1 24 880.336)"/>
</clipPath>
<clipPath id="clip9_291_4789">
<rect width="19" height="20" fill="white" transform="matrix(-1 0 0 1 24 1002.66)"/>
</clipPath>
<clipPath id="clip10_291_4789">
<rect width="19" height="20" fill="white" transform="matrix(-1 0 0 1 24 1125)"/>
</clipPath>
<clipPath id="clip11_291_4789">
<rect width="3" height="1145" fill="white" transform="matrix(-1 0 0 1 3 0)"/>
</clipPath>
</defs>
</svg>
